<svg width="170" height="280" viewBox="0 0 170 280" fill="none" xmlns="http://www.w3.org/2000/svg">
<path fill-rule="evenodd" clip-rule="evenodd" d="M0.119904 -10H169.559V181H0.119904V-10Z" fill="#4AF6CD"/>
<path d="M60.7425 145.36C60.7425 142.2 61.2025 139.42 62.1225 137.02C63.0425 134.58 64.4225 132.4 66.2625 130.48L72.1425 135.46C69.8625 138.34 68.7225 141.36 68.7225 144.52C68.7225 146.16 69.0425 147.42 69.6825 148.3C70.2825 149.14 71.1425 149.56 72.2625 149.56C73.0625 149.56 73.7225 149.34 74.2425 148.9C74.7625 148.46 75.2625 147.72 75.7425 146.68C76.2225 145.64 76.8225 144 77.5425 141.76C78.9025 137.48 80.6225 134.36 82.7025 132.4C84.7425 130.4 87.5825 129.4 91.2225 129.4C93.8625 129.4 96.2025 130.08 98.2425 131.44C100.242 132.8 101.802 134.78 102.922 137.38C104.042 139.94 104.602 142.96 104.602 146.44C104.602 153.08 102.582 158.5 98.5425 162.7L92.4825 157.24C95.2025 153.92 96.5625 150.46 96.5625 146.86C96.5625 144.98 96.1625 143.52 95.3625 142.48C94.5225 141.44 93.4225 140.92 92.0625 140.92C91.1025 140.92 90.3225 141.12 89.7225 141.52C89.0825 141.92 88.5225 142.64 88.0425 143.68C87.5225 144.68 86.9625 146.16 86.3625 148.12C84.8825 152.84 83.1025 156.16 81.0225 158.08C78.9425 160 76.3225 160.96 73.1625 160.96C70.6825 160.96 68.5025 160.3 66.6225 158.98C64.7425 157.62 63.3025 155.76 62.3025 153.4C61.2625 151 60.7425 148.32 60.7425 145.36ZM89.5425 91.9553C92.4225 91.9553 95.0025 92.5953 97.2825 93.8753C99.5625 95.1153 101.362 96.9953 102.682 99.5153C103.962 102.035 104.602 105.115 104.602 108.755C104.602 114.275 103.262 118.455 100.582 121.295C97.8625 124.135 94.1825 125.555 89.5425 125.555H61.8225V114.455H89.1825C91.7025 114.455 93.5625 114.015 94.7625 113.135C95.9225 112.215 96.5025 110.755 96.5025 108.755C96.5025 106.755 95.9025 105.315 94.7025 104.435C93.5025 103.555 91.6625 103.115 89.1825 103.115H61.8225V91.9553H89.5425ZM88.1625 71.9477V75.0077H103.522V86.1077H61.8225V71.6477C61.8225 65.7677 62.8825 61.3877 65.0025 58.5077C67.1225 55.5877 70.3825 54.1277 74.7825 54.1277C77.4225 54.1277 79.6225 54.7477 81.3825 55.9877C83.1425 57.1877 84.7225 59.1277 86.1225 61.8077L103.522 51.4277V63.7877L88.1625 71.9477ZM80.6025 75.0077V71.2877C80.6025 67.4477 78.6625 65.5277 74.7825 65.5277C72.9825 65.5277 71.6625 66.0677 70.8225 67.1477C69.9825 68.1877 69.5625 69.7677 69.5625 71.8877V75.0077H80.6025ZM103.522 48.9006H61.8225V23.2806L69.6825 24.4206V37.8006H79.7025V26.0406H87.5625V37.8006H103.522V48.9006Z" fill="white"/>
<path d="M60.7425 257.92C60.7425 252.36 62.5025 247.58 66.0225 243.58L71.7225 249.04C70.6425 250.56 69.8625 251.94 69.3825 253.18C68.8625 254.38 68.6025 255.76 68.6025 257.32C68.6025 260.32 69.7625 262.68 72.0825 264.4C74.4025 266.08 77.9425 266.92 82.7025 266.92C86.1825 266.92 88.9425 266.64 90.9825 266.08C92.9825 265.52 94.4225 264.68 95.3025 263.56C96.1825 262.4 96.6225 260.92 96.6225 259.12C96.6225 257.32 96.2425 255.68 95.4825 254.2H86.9025V258.94L79.2825 260.02V243.46H100.042C101.482 245.62 102.602 248.06 103.402 250.78C104.202 253.5 104.602 256.18 104.602 258.82C104.602 271.86 97.2825 278.38 82.6425 278.38C78.0825 278.38 74.1625 277.5 70.8825 275.74C67.5625 273.94 65.0425 271.5 63.3225 268.42C61.6025 265.34 60.7425 261.84 60.7425 257.92ZM60.7425 220.335C60.7425 214.295 62.6625 209.595 66.5025 206.235C70.3425 202.875 75.7225 201.195 82.6425 201.195C87.1625 201.195 91.0825 201.955 94.4025 203.475C97.6825 204.955 100.202 207.135 101.962 210.015C103.722 212.895 104.602 216.335 104.602 220.335C104.602 226.375 102.682 231.075 98.8425 234.435C95.0025 237.755 89.6025 239.415 82.6425 239.415C78.1225 239.415 74.2225 238.675 70.9425 237.195C67.6625 235.675 65.1425 233.495 63.3825 230.655C61.6225 227.775 60.7425 224.335 60.7425 220.335ZM68.7225 220.335C68.7225 222.935 69.8025 224.855 71.9625 226.095C74.1225 227.295 77.6825 227.895 82.6425 227.895C87.6025 227.895 91.1825 227.275 93.3825 226.035C95.5425 224.795 96.6225 222.895 96.6225 220.335C96.6225 217.695 95.5425 215.775 93.3825 214.575C91.2225 213.375 87.6425 212.775 82.6425 212.775C77.6825 212.775 74.1225 213.375 71.9625 214.575C69.8025 215.775 68.7225 217.695 68.7225 220.335Z" fill="white"/>
<rect x="83.8308" y="191" width="20" height="1.00857" transform="rotate(-90 83.8308 191)" fill="white"/>
</svg>
